<svg width="64" height="64" viewBox="0 0 64 64" fill="none" xmlns="http://www.w3.org/2000/svg">
<path d="M6.3999 6.4C6.3999 2.88 9.2799 0 12.7999 0H51.1999C52.8973 0 54.5252 0.674284 55.7254 1.87452C56.9256 3.07475 57.5999 4.70261 57.5999 6.4V57.6C57.5999 59.2974 56.9256 60.9253 55.7254 62.1255C54.5252 63.3257 52.8973 64 51.1999 64H12.7999C11.1025 64 9.47465 63.3257 8.27442 62.1255C7.07419 60.9253 6.3999 59.2974 6.3999 57.6V6.4ZM39.6799 24.32C36.6054 22.6378 33.0637 22.0116 29.5989 22.5375C26.134 23.0634 22.9376 24.7124 20.5008 27.2312C18.064 29.7499 16.5216 32.999 16.1104 36.4794C15.6993 39.9597 16.4423 43.4788 18.2251 46.496C20.008 49.5132 22.7322 51.8615 25.9792 53.1803C29.2261 54.4991 32.8163 54.7153 36.1981 53.7958C39.5798 52.8762 42.5662 50.8718 44.6983 48.0904C46.8304 45.309 47.9903 41.9046 47.9999 38.4V16L39.6799 24.32ZM31.9999 44.8C30.3025 44.8 28.6747 44.1257 27.4744 42.9255C26.2742 41.7253 25.5999 40.0974 25.5999 38.4C25.5999 36.7026 26.2742 35.0748 27.4744 33.8745C28.6747 32.6743 30.3025 32 31.9999 32C33.6973 32 35.3252 32.6743 36.5254 33.8745C37.7256 35.0748 38.3999 36.7026 38.3999 38.4C38.3999 40.0974 37.7256 41.7253 36.5254 42.9255C35.3252 44.1257 33.6973 44.8 31.9999 44.8ZM19.1999 9.6V16H31.9999V9.6H19.1999ZM12.7999 9.6C13.6486 9.6 14.4625 9.26286 15.0626 8.66274C15.6628 8.06263 15.9999 7.24869 15.9999 6.4C15.9999 5.55131 15.6628 4.73737 15.0626 4.13726C14.4625 3.53714 13.6486 3.2 12.7999 3.2C11.9512 3.2 11.1373 3.53714 10.5372 4.13726C9.93704 4.73737 9.5999 5.55131 9.5999 6.4C9.5999 7.24869 9.93704 8.06263 10.5372 8.66274C11.1373 9.26286 11.9512 9.6 12.7999 9.6ZM12.7999 60.8C13.6486 60.8 14.4625 60.4629 15.0626 59.8627C15.6628 59.2626 15.9999 58.4487 15.9999 57.6C15.9999 56.7513 15.6628 55.9374 15.0626 55.3373C14.4625 54.7371 13.6486 54.4 12.7999 54.4C11.9512 54.4 11.1373 54.7371 10.5372 55.3373C9.93704 55.9374 9.5999 56.7513 9.5999 57.6C9.5999 58.4487 9.93704 59.2626 10.5372 59.8627C11.1373 60.4629 11.9512 60.8 12.7999 60.8ZM51.1999 60.8C52.0486 60.8 52.8625 60.4629 53.4626 59.8627C54.0628 59.2626 54.3999 58.4487 54.3999 57.6C54.3999 56.7513 54.0628 55.9374 53.4626 55.3373C52.8625 54.7371 52.0486 54.4 51.1999 54.4C50.3512 54.4 49.5373 54.7371 48.9372 55.3373C48.337 55.9374 47.9999 56.7513 47.9999 57.6C47.9999 58.4487 48.337 59.2626 48.9372 59.8627C49.5373 60.4629 50.3512 60.8 51.1999 60.8ZM51.1999 9.6C52.0486 9.6 52.8625 9.26286 53.4626 8.66274C54.0628 8.06263 54.3999 7.24869 54.3999 6.4C54.3999 5.55131 54.0628 4.73737 53.4626 4.13726C52.8625 3.53714 52.0486 3.2 51.1999 3.2C50.3512 3.2 49.5373 3.53714 48.9372 4.13726C48.337 4.73737 47.9999 5.55131 47.9999 6.4C47.9999 7.24869 48.337 8.06263 48.9372 8.66274C49.5373 9.26286 50.3512 9.6 51.1999 9.6Z" fill="black"/>
</svg>
