<svg width="72" height="84" viewBox="0 0 72 84" fill="none" xmlns="http://www.w3.org/2000/svg">
<g filter="url(#filter0_d_2407_387513)">
<path d="M10.3999 16.4C10.3999 12.88 13.2799 10 16.7999 10H55.1999C56.8973 10 58.5252 10.6743 59.7254 11.8745C60.9256 13.0747 61.5999 14.7026 61.5999 16.4V67.6C61.5999 69.2974 60.9256 70.9253 59.7254 72.1255C58.5252 73.3257 56.8973 74 55.1999 74H16.7999C15.1025 74 13.4747 73.3257 12.2744 72.1255C11.0742 70.9253 10.3999 69.2974 10.3999 67.6V16.4ZM43.6799 34.32C40.6054 32.6378 37.0637 32.0116 33.5989 32.5375C30.134 33.0634 26.9376 34.7124 24.5008 37.2312C22.064 39.7499 20.5216 42.999 20.1104 46.4794C19.6993 49.9597 20.4423 53.4788 22.2251 56.496C24.008 59.5132 26.7322 61.8615 29.9792 63.1803C33.2261 64.4991 36.8163 64.7153 40.1981 63.7958C43.5798 62.8762 46.5662 60.8718 48.6983 58.0904C50.8304 55.309 51.9903 51.9046 51.9999 48.4V26L43.6799 34.32ZM35.9999 54.8C34.3025 54.8 32.6747 54.1257 31.4744 52.9255C30.2742 51.7253 29.5999 50.0974 29.5999 48.4C29.5999 46.7026 30.2742 45.0748 31.4744 43.8745C32.6747 42.6743 34.3025 42 35.9999 42C37.6973 42 39.3252 42.6743 40.5254 43.8745C41.7256 45.0748 42.3999 46.7026 42.3999 48.4C42.3999 50.0974 41.7256 51.7253 40.5254 52.9255C39.3252 54.1257 37.6973 54.8 35.9999 54.8ZM23.1999 19.6V26H35.9999V19.6H23.1999ZM16.7999 19.6C17.6486 19.6 18.4625 19.2629 19.0626 18.6627C19.6628 18.0626 19.9999 17.2487 19.9999 16.4C19.9999 15.5513 19.6628 14.7374 19.0626 14.1373C18.4625 13.5371 17.6486 13.2 16.7999 13.2C15.9512 13.2 15.1373 13.5371 14.5372 14.1373C13.937 14.7374 13.5999 15.5513 13.5999 16.4C13.5999 17.2487 13.937 18.0626 14.5372 18.6627C15.1373 19.2629 15.9512 19.6 16.7999 19.6ZM16.7999 70.8C17.6486 70.8 18.4625 70.4629 19.0626 69.8627C19.6628 69.2626 19.9999 68.4487 19.9999 67.6C19.9999 66.7513 19.6628 65.9374 19.0626 65.3373C18.4625 64.7371 17.6486 64.4 16.7999 64.4C15.9512 64.4 15.1373 64.7371 14.5372 65.3373C13.937 65.9374 13.5999 66.7513 13.5999 67.6C13.5999 68.4487 13.937 69.2626 14.5372 69.8627C15.1373 70.4629 15.9512 70.8 16.7999 70.8ZM55.1999 70.8C56.0486 70.8 56.8625 70.4629 57.4626 69.8627C58.0628 69.2626 58.3999 68.4487 58.3999 67.6C58.3999 66.7513 58.0628 65.9374 57.4626 65.3373C56.8625 64.7371 56.0486 64.4 55.1999 64.4C54.3512 64.4 53.5373 64.7371 52.9372 65.3373C52.337 65.9374 51.9999 66.7513 51.9999 67.6C51.9999 68.4487 52.337 69.2626 52.9372 69.8627C53.5373 70.4629 54.3512 70.8 55.1999 70.8ZM55.1999 19.6C56.0486 19.6 56.8625 19.2629 57.4626 18.6627C58.0628 18.0626 58.3999 17.2487 58.3999 16.4C58.3999 15.5513 58.0628 14.7374 57.4626 14.1373C56.8625 13.5371 56.0486 13.2 55.1999 13.2C54.3512 13.2 53.5373 13.5371 52.9372 14.1373C52.337 14.7374 51.9999 15.5513 51.9999 16.4C51.9999 17.2487 52.337 18.0626 52.9372 18.6627C53.5373 19.2629 54.3512 19.6 55.1999 19.6Z" fill="#28C76F"/>
</g>
<defs>
<filter id="filter0_d_2407_387513" x="-6" y="0" width="84" height="84" filterUnits="userSpaceOnUse" color-interpolation-filters="sRGB">
<feFlood flood-opacity="0" result="BackgroundImageFix"/>
<feColorMatrix in="SourceAlpha" type="matrix" values="0 0 0 0 0 0 0 0 0 0 0 0 0 0 0 0 0 0 127 0" result="hardAlpha"/>
<feOffset/>
<feGaussianBlur stdDeviation="5"/>
<feColorMatrix type="matrix" values="0 0 0 0 0.156863 0 0 0 0 0.780392 0 0 0 0 0.435294 0 0 0 0.65 0"/>
<feBlend mode="normal" in2="BackgroundImageFix" result="effect1_dropShadow_2407_387513"/>
<feBlend mode="normal" in="SourceGraphic" in2="effect1_dropShadow_2407_387513" result="shape"/>
</filter>
</defs>
</svg>
