<svg width="64" height="64" viewBox="0 0 64 64" fill="none" xmlns="http://www.w3.org/2000/svg">
<mask id="mask0_2427_387070" style="mask-type:alpha" maskUnits="userSpaceOnUse" x="2" y="2" width="60" height="60">
<path fill-rule="evenodd" clip-rule="evenodd" d="M50.6665 21.3333H53.3332C57.8665 21.3333 61.3332 24.8 61.3332 29.3333V42.6666C61.3332 47.2 57.8665 50.6666 53.3332 50.6666H50.6665V58.6666C50.6665 60.2666 49.5998 61.3333 47.9998 61.3333H15.9998C14.3998 61.3333 13.3332 60.2666 13.3332 58.6666V50.6666H10.6665C6.13317 50.6666 2.6665 47.2 2.6665 42.6666V29.3333C2.6665 24.8 6.13317 21.3333 10.6665 21.3333H13.3332V5.33329C13.3332 3.73329 14.3998 2.66663 15.9998 2.66663H47.9998C49.5998 2.66663 50.6665 3.73329 50.6665 5.33329V21.3333ZM45.3332 7.99996H18.6665V21.3333H45.3332V7.99996ZM45.3332 56H18.6665V40H45.3332V56ZM53.3332 45.3333C54.9332 45.3333 55.9998 44.2666 55.9998 42.6666V29.3333C55.9998 27.7333 54.9332 26.6666 53.3332 26.6666H10.6665C9.0665 26.6666 7.99984 27.7333 7.99984 29.3333V42.6666C7.99984 44.2666 9.0665 45.3333 10.6665 45.3333H13.3332V37.3333C13.3332 35.7333 14.3998 34.6666 15.9998 34.6666H47.9998C49.5998 34.6666 50.6665 35.7333 50.6665 37.3333V45.3333H53.3332Z" fill="white"/>
</mask>
<g mask="url(#mask0_2427_387070)">
<rect width="64" height="64" fill="#6E6B7B"/>
</g>
</svg>
